<?xml version="1.0" encoding="UTF-8"?>
<svg id="_編集モード" data-name="編集モード" xmlns="http://www.w3.org/2000/svg" viewBox="0 0 398.09 207.1">
  <defs>
    <style>
      .cls-1 {
        fill: #25282a;
        stroke-width: 0px;
      }
    </style>
  </defs>
  <g>
    <polygon class="cls-1" points="0 156.15 45.73 156.15 92.88 76.86 105.22 97.52 89.53 97.52 68.78 132.72 125.77 132.72 139.86 156.15 185.61 156.15 92.67 0 0 156.15"/>
    <path class="cls-1" d="M322.7,28.64h0c-16.61-12.99-38.16-19.58-64.06-19.58h-20.81v35.41h17.26c20.93,0,35.16,3.89,42.29,11.57,7.28,7.85,10.83,16.72,10.83,27.14,0,11.7-4.61,20.78-14.09,27.75-9.12,6.71-20.96,10.12-35.2,10.12h-29.61V9.06h-40.57v147.09h71.39c26.16,0,47.56-6.52,63.59-19.38,16.63-13.29,25.06-31.47,25.06-54.06s-8.77-40.5-26.07-54.07Z"/>
    <g>
      <polygon class="cls-1" points="398.09 9.06 357.52 9.06 357.52 49.69 398.09 9.12 398.09 9.06"/>
      <polygon class="cls-1" points="357.52 61.69 357.52 156.15 398.09 156.15 398.09 21.12 357.52 61.69"/>
    </g>
  </g>
  <g>
    <path class="cls-1" d="M13.31,185.89c3.5.23,6.71,1.69,6.71,5.75,0,5.25-4.21,7.53-10.17,7.53H0v-25.77h9.28c5.67,0,9.46,1.88,9.46,6.61,0,3.3-2.14,5.02-5.42,5.72v.17ZM6.24,177.7v6.41h2.36c2.03,0,3.71-.96,3.71-3.24s-1.61-3.17-3.71-3.17h-2.36ZM9.71,194.71c2.39,0,3.96-.83,3.96-3.21,0-2.08-1.57-3.11-3.93-3.11h-3.5v6.31h3.46Z"/>
    <path class="cls-1" d="M40.32,180.34v18.83h-5.67v-2.54h-.07c-1.18,1.95-3.28,2.87-5.85,2.87-3.64,0-6.46-2.02-6.46-6.41v-12.75h6.07v11.56c0,2.54.86,3.44,2.82,3.44,1.75,0,3.1-.99,3.1-3.44v-11.56h6.07Z"/>
    <path class="cls-1" d="M59.69,193.99c0,1.02.36,1.55,1.43,1.55.14,0,.39,0,.61-.07v3.7c-.68.2-1.75.33-2.71.33-3.07,0-5.39-1.02-5.39-4.59v-22.17h6.07v21.25Z"/>
    <path class="cls-1" d="M81.82,172.74v26.43h-5.89v-.2c0-.59.04-1.09.18-1.85h-.14c-1.28,1.52-3.07,2.38-5.25,2.38-5.32,0-8.21-3.47-8.21-9.81,0-5.65,3.57-9.68,8.56-9.68,2.11,0,3.75.73,4.96,2.11h.11c-.32-1.35-.39-2.31-.39-5.12v-4.26h6.07ZM76.04,189.66c0-3.8-1.21-5.62-3.71-5.62-2.25,0-3.64,2.15-3.64,5.65s1.43,5.72,3.82,5.72c2.25,0,3.53-2.08,3.53-5.75Z"/>
    <path class="cls-1" d="M100.34,182.88c1.18-1.95,3.28-2.87,5.85-2.87,3.64,0,6.46,2.02,6.46,6.41v12.75h-6.07v-11.56c0-2.54-.86-3.44-2.82-3.44-1.75,0-3.1.99-3.1,3.44v11.56h-6.07v-18.83h5.67v2.54h.07Z"/>
    <path class="cls-1" d="M126.51,194.78c5.1,0,7.71,2.02,7.71,5.32,0,3.63-3.46,7-10.99,7-7.14,0-9.56-2.28-9.56-4.46,0-1.88,1.21-2.97,3.25-3.7-1.36-.86-2-2.15-2-3.4,0-2.08,1.21-3.47,2.96-4.43-1.46-1.06-2.36-2.61-2.36-4.66,0-4.33,4.03-6.34,8.6-6.34.86,0,1.71.07,2.53.23,1.14-3.07,3.85-4.3,7.03-4.3v4.53c-1.61,0-2.93.13-4,.83,1.82,1.02,3,2.71,3,5.06,0,4.33-3.96,6.38-8.56,6.38-1.43,0-2.78-.2-4-.59-.39.3-.61.69-.61,1.16,0,.89.64,1.39,2.5,1.39h4.5ZM120.98,199.93c-.57,0-1.07-.03-1.53-.1-.43.5-.54,1.09-.54,1.62,0,1.75,2.18,2.35,4.92,2.35,2.61,0,4.1-.79,4.1-2.08s-1.18-1.78-3.53-1.78h-3.43ZM121.4,186.45c0,2.45,1.28,3.44,2.71,3.44s2.68-.96,2.68-3.44-1.25-3.37-2.68-3.37-2.71.89-2.71,3.37Z"/>
    <path class="cls-1" d="M180.21,180.34v18.83h-5.67v-2.54h-.07c-1.18,1.95-3.28,2.87-5.85,2.87-3.64,0-6.46-2.02-6.46-6.41v-12.75h6.07v11.56c0,2.54.86,3.44,2.82,3.44,1.75,0,3.1-.99,3.1-3.44v-11.56h6.07Z"/>
    <path class="cls-1" d="M215.35,180.34v18.83h-5.67v-2.54h-.07c-1.18,1.95-3.28,2.87-5.85,2.87-3.64,0-6.46-2.02-6.46-6.41v-12.75h6.07v11.56c0,2.54.86,3.44,2.82,3.44,1.75,0,3.1-.99,3.1-3.44v-11.56h6.07Z"/>
    <path class="cls-1" d="M222.54,185.3c.57-3.57,2.36-5.39,5.21-5.39.54,0,1.18.03,1.71.13v4.69c-.54-.1-1.18-.13-1.71-.13-2.64,0-4.21.63-4.21,4.39v10.18h-6.1v-18.83h4.92v4.96h.18Z"/>
    <path class="cls-1" d="M289.36,189.49c0,7.04-4.32,10.01-9.96,10.01s-9.96-2.94-9.96-9.48c0-7.04,4.32-10.01,9.96-10.01s9.96,2.94,9.96,9.48ZM283.11,189.69c0-3.07-1.07-5.55-3.71-5.55-2.5,0-3.71,1.75-3.71,5.68,0,3.07,1.07,5.55,3.71,5.55,2.5,0,3.71-1.78,3.71-5.68Z"/>
    <path class="cls-1" d="M302.23,194.78c5.1,0,7.71,2.02,7.71,5.32,0,3.63-3.46,7-10.99,7-7.14,0-9.56-2.28-9.56-4.46,0-1.88,1.21-2.97,3.25-3.7-1.36-.86-2-2.15-2-3.4,0-2.08,1.21-3.47,2.96-4.43-1.46-1.06-2.36-2.61-2.36-4.66,0-4.33,4.03-6.34,8.6-6.34.86,0,1.71.07,2.53.23,1.14-3.07,3.85-4.3,7.03-4.3v4.53c-1.61,0-2.93.13-4,.83,1.82,1.02,3,2.71,3,5.06,0,4.33-3.96,6.38-8.56,6.38-1.43,0-2.78-.2-4-.59-.39.3-.61.69-.61,1.16,0,.89.64,1.39,2.5,1.39h4.5ZM296.7,199.93c-.57,0-1.07-.03-1.53-.1-.43.5-.54,1.09-.54,1.62,0,1.75,2.18,2.35,4.92,2.35,2.61,0,4.1-.79,4.1-2.08s-1.18-1.78-3.53-1.78h-3.43ZM297.13,186.45c0,2.45,1.28,3.44,2.71,3.44s2.68-.96,2.68-3.44-1.25-3.37-2.68-3.37-2.71.89-2.71,3.37Z"/>
    <path class="cls-1" d="M351.52,182.75c1.18-1.85,3.25-2.74,5.75-2.74,3.64,0,6.46,2.02,6.46,6.41v12.75h-6.07v-11.56c0-2.54-.86-3.44-2.82-3.44-1.75,0-3.1.99-3.1,3.44v11.56h-6.07v-26.43h6.07v4.69c0,2.91-.29,4.66-.43,5.32h.21Z"/>
    <path class="cls-1" d="M391.17,185.3c.57-3.57,2.36-5.39,5.21-5.39.54,0,1.18.03,1.71.13v4.69c-.54-.1-1.18-.13-1.71-.13-2.64,0-4.21.63-4.21,4.39v10.18h-6.1v-18.83h4.92v4.96h.18Z"/>
    <g>
      <rect class="cls-1" x="85.13" y="179.99" width="6.42" height="19.18"/>
      <rect class="cls-1" x="85.13" y="173.05" width="6.42" height="5.22"/>
    </g>
    <path class="cls-1" d="M193.78,194.92c-2.03,0-2.79-.62-2.79-2.27v-8.35h4.39v-4.32h-4.39v-6.95h-6.24v6.95h-2.93v4.32h2.93v9.24c0,1.95.64,3.46,1.9,4.5,1.16.95,2.83,1.46,4.84,1.46,1.4,0,2.99-.21,4.05-.54l.12-.04v-4.34l-.23.08c-.38.13-1.04.26-1.66.26Z"/>
    <path class="cls-1" d="M248.39,188.36s0-.07,0-.1v-.12s0-.06,0-.08v-.06s0-.05,0-.07c0-.03,0-.06,0-.08v-.06s0-.05,0-.07v-.22s-.02-.06-.02-.09l-.03-.34s0-.06-.01-.09v-.12s-.02-.06-.03-.09l-.02-.12s0-.06-.01-.09l-.02-.12s-.01-.06-.02-.09v-.04s-.02-.05-.02-.07c0-.03-.01-.06-.02-.09l-.02-.11s-.01-.06-.02-.09v-.04s-.02-.05-.03-.08c0-.03-.02-.07-.02-.1l-.03-.1s-.02-.08-.03-.11l-.02-.09s-.02-.08-.03-.11l-.03-.08s-.02-.07-.04-.11l-.03-.08s-.03-.07-.04-.11l-.03-.08s-.03-.07-.04-.11l-.03-.08s-.03-.07-.04-.11l-.03-.08s-.03-.07-.05-.11l-.03-.07s-.03-.07-.05-.11c-.01-.02-.02-.05-.03-.07-.02-.04-.04-.07-.05-.11-.01-.02-.02-.05-.03-.07-.02-.04-.04-.07-.06-.11l-.04-.07s-.04-.07-.06-.11l-.04-.07s-.04-.07-.06-.11l-.04-.06s-.04-.07-.07-.11l-.04-.06s-.05-.07-.07-.11l-.04-.06s-.05-.07-.08-.11l-.04-.06s-.05-.07-.08-.11l-.04-.05s-.06-.07-.08-.1l-.04-.05s-.06-.07-.09-.1l-.04-.05s-.06-.07-.09-.1l-.04-.05s-.06-.07-.1-.1l-.04-.04s-.07-.07-.1-.1l-.04-.04s-.07-.07-.11-.1l-.04-.04s-.07-.07-.11-.1l-.04-.03s-.08-.07-.12-.1l-.04-.03s-.08-.07-.12-.1l-.04-.03s-.09-.07-.13-.1l-.04-.03s-.09-.06-.14-.1l-.03-.02s-.1-.06-.14-.1l-.03-.02c-.05-.03-.1-.06-.15-.09l-.03-.02c-.05-.03-.11-.06-.16-.09h-.02c-.06-.04-.11-.08-.17-.11h-.01c-.06-.04-.12-.07-.18-.1h0c-1.3-.65-2.87-.99-4.67-1.03-.12,0-.23,0-.35,0-4.26,0-7.41,2.18-8.66,5.99-.05.16-.1.33-.15.5-.02.08-.05.17-.07.26-.04.17-.08.35-.12.53-.02.09-.04.18-.05.27-.05.27-.09.56-.12.85-.07.58-.1,1.2-.1,1.83,0,.11,0,.22,0,.33v.1c0,.08,0,.16.01.24v.11c0,.09.01.17.02.25v.07c.01.11.02.21.03.32v.07c.02.08.02.16.03.24v.1c.02.08.03.15.04.23v.08c.03.1.04.2.06.3.02.1.04.2.06.29l.02.08c.02.07.03.15.05.23l.02.07c.02.08.04.17.07.25v.03c.03.1.06.19.09.28v.04c.04.08.06.15.09.23l.02.07c.03.07.05.15.08.22l.02.05c.07.18.14.35.22.52l.02.05c.03.07.07.14.1.21l.02.05c.09.17.18.33.27.49v.02c.05.07.1.14.14.21l.02.04c.05.07.09.14.14.21h0c.11.16.22.31.34.45l.02.02c.05.06.11.13.16.19v.02c.14.14.27.27.4.4h0c.06.07.13.13.2.19l.02.02c.21.18.43.36.66.53h0c.07.06.15.11.23.16.1.06.21.13.34.21.03.02.05.03.08.05l.03.02s.03.02.05.03c.09.05.18.1.27.15h0c.19.1.38.19.57.27h.01c.3.13.61.24.92.34h.01c.21.07.44.13.66.18.33.08.69.14,1.04.19h0c.6.09,1.25.13,1.91.14h.05s.07,0,.1,0c.12,0,.23,0,.35,0h.11c.08,0,.16,0,.23-.01h.13c.07,0,.14-.01.21-.02.05,0,.09,0,.14,0,.07,0,.14-.01.2-.02.05,0,.09,0,.14-.01.07,0,.13-.01.2-.02h.02s.07-.01.11-.02c.07,0,.14-.02.21-.03h.03s.06-.01.09-.02c.08-.01.15-.03.23-.04h.04s.04-.01.06-.02c.22-.04.43-.09.63-.14.02,0,.04-.01.06-.02h.03c.07-.03.15-.05.22-.07.03,0,.05-.02.08-.02h.03c.07-.03.13-.05.19-.07.04-.01.07-.03.12-.04.06-.02.12-.05.18-.07.04-.01.08-.03.12-.05.06-.02.12-.05.18-.08.04-.02.07-.03.11-.05.06-.03.12-.06.18-.09l.03-.02s.05-.02.07-.03c.07-.04.14-.07.2-.11l.03-.02s.03-.02.05-.03c.1-.05.19-.11.28-.17.08-.05.16-.1.23-.16.02-.01.04-.03.06-.04l.04-.03s.08-.06.13-.09c.03-.02.06-.05.09-.07h.02s.08-.07.11-.1c.04-.03.08-.07.12-.1.03-.03.07-.06.1-.09.04-.04.08-.08.12-.11.03-.03.06-.06.09-.08.04-.04.09-.08.13-.13.02-.02.04-.04.06-.06h.01c.04-.06.09-.11.13-.16.01-.01.03-.03.04-.04l.02-.02c.05-.05.09-.11.14-.17.79-.91,1.37-2.04,1.72-3.36l.06-.22h-6.06l-.05.11c-.26.61-.69,1.12-1.23,1.48-.51.34-1.1.52-1.71.52-.64,0-1.26-.2-1.79-.58-.87-.61-1.41-2.17-1.43-3.29h12.31v-3.05ZM242.52,187.3h-6.45c.02-.96.4-1.95.99-2.55.6-.62,1.4-.96,2.24-.96.35,0,.7.06,1.03.18,1.25.45,2.16,1.84,2.19,3.33ZM234.97,198.49h0Z"/>
    <path class="cls-1" d="M328.78,188.36s0-.07,0-.1v-.12s0-.06,0-.08v-.06s0-.05,0-.07c0-.03,0-.06,0-.08v-.06s0-.05,0-.07v-.22s-.02-.06-.02-.09l-.03-.34s0-.06-.01-.09v-.12s-.02-.06-.03-.09l-.02-.12s0-.06-.01-.09l-.02-.12s-.01-.06-.02-.09v-.04s-.02-.05-.02-.07c0-.03-.01-.06-.02-.09l-.02-.11s-.01-.06-.02-.09v-.04s-.02-.05-.03-.08c0-.03-.02-.07-.02-.1l-.03-.1s-.02-.08-.03-.11l-.02-.09s-.02-.08-.03-.11l-.03-.08s-.02-.07-.04-.11l-.03-.08s-.03-.07-.04-.11l-.03-.08s-.03-.07-.04-.11l-.03-.08s-.03-.07-.04-.11l-.03-.08s-.03-.07-.05-.11l-.03-.07s-.03-.07-.05-.11c-.01-.02-.02-.05-.03-.07-.02-.04-.04-.07-.05-.11-.01-.02-.02-.05-.03-.07-.02-.04-.04-.07-.06-.11l-.04-.07s-.04-.07-.06-.11l-.04-.07s-.04-.07-.06-.11l-.04-.06s-.04-.07-.07-.11l-.04-.06s-.05-.07-.07-.11l-.04-.06s-.05-.07-.08-.11l-.04-.06s-.05-.07-.08-.11l-.04-.05s-.06-.07-.08-.1l-.04-.05s-.06-.07-.09-.1l-.04-.05s-.06-.07-.09-.1l-.04-.05s-.06-.07-.1-.1l-.04-.04s-.07-.07-.1-.1l-.04-.04s-.07-.07-.11-.1l-.04-.04s-.07-.07-.11-.1l-.04-.03s-.08-.07-.12-.1l-.04-.03s-.08-.07-.12-.1l-.04-.03s-.09-.07-.13-.1l-.04-.03s-.09-.06-.14-.1l-.03-.02s-.1-.06-.14-.1l-.03-.02c-.05-.03-.1-.06-.15-.09l-.03-.02c-.05-.03-.11-.06-.16-.09h-.02c-.06-.04-.11-.08-.17-.11h-.01c-.06-.04-.12-.07-.18-.1h0c-1.3-.65-2.87-.99-4.67-1.03-.12,0-.23,0-.35,0-4.26,0-7.41,2.18-8.66,5.99-.05.16-.1.33-.15.5-.02.08-.05.17-.07.26-.04.17-.08.35-.12.53-.02.09-.04.18-.05.27-.05.27-.09.56-.12.85-.07.58-.1,1.2-.1,1.83,0,.11,0,.22,0,.33v.1c0,.08,0,.16.01.24v.11c0,.09.01.17.02.25v.07c.01.11.02.21.03.32v.07c.02.08.02.16.03.24v.1c.02.08.03.15.04.23v.08c.03.1.04.2.06.3.02.1.04.2.06.29l.02.08c.02.07.03.15.05.23l.02.07c.02.08.04.17.07.25v.03c.03.1.06.19.09.28v.04c.04.08.06.15.09.23l.02.07c.03.07.05.15.08.22l.02.05c.07.18.14.35.22.52l.02.05c.03.07.07.14.1.21l.02.05c.09.17.18.33.27.49v.02c.05.07.1.14.14.21l.02.04c.05.07.09.14.14.21h0c.11.16.22.31.34.45l.02.02c.05.06.11.13.16.19v.02c.14.14.27.27.4.4h0c.06.07.13.13.2.19l.02.02c.21.18.43.36.66.53h0c.07.06.15.11.23.16.1.06.21.13.34.21.03.02.05.03.08.05l.03.02s.03.02.05.03c.09.05.18.1.27.15h0c.19.1.38.19.57.27h.01c.3.13.61.24.92.34h.01c.21.07.44.13.66.18.33.08.69.14,1.04.19h0c.6.09,1.25.13,1.91.14h.05s.07,0,.1,0c.12,0,.23,0,.35,0h.11c.08,0,.16,0,.23-.01h.13c.07,0,.14-.01.21-.02.05,0,.09,0,.14,0,.07,0,.14-.01.2-.02.05,0,.09,0,.14-.01.07,0,.13-.01.2-.02h.02s.07-.01.11-.02c.07,0,.14-.02.21-.03h.03s.06-.01.09-.02c.08-.01.15-.03.23-.04h.04s.04-.01.06-.02c.22-.04.43-.09.63-.14.02,0,.04-.01.06-.02h.03c.07-.03.15-.05.22-.07.03,0,.05-.02.08-.02h.03c.07-.03.13-.05.19-.07.04-.01.07-.03.12-.04.06-.02.12-.05.18-.07.04-.01.08-.03.12-.05.06-.02.12-.05.18-.08.04-.02.07-.03.11-.05.06-.03.12-.06.18-.09l.03-.02s.05-.02.07-.03c.07-.04.14-.07.2-.11l.03-.02s.03-.02.05-.03c.1-.05.19-.11.28-.17.08-.05.16-.1.23-.16.02-.01.04-.03.06-.04l.04-.03s.08-.06.13-.09c.03-.02.06-.05.09-.07h.02s.08-.07.11-.1c.04-.03.08-.07.12-.1.03-.03.07-.06.1-.09.04-.04.08-.08.12-.11.03-.03.06-.06.09-.08.04-.04.09-.08.13-.13.02-.02.04-.04.06-.06h.01c.04-.06.09-.11.13-.16.01-.01.03-.03.04-.04l.02-.02c.05-.05.09-.11.14-.17.79-.91,1.37-2.04,1.72-3.36l.06-.22h-6.06l-.05.11c-.26.61-.69,1.12-1.23,1.48-.51.34-1.1.52-1.71.52-.64,0-1.26-.2-1.79-.58-.87-.61-1.41-2.17-1.43-3.29h12.31v-3.05ZM322.91,187.3h-6.45c.02-.96.4-1.95.99-2.55.6-.62,1.4-.96,2.24-.96.35,0,.7.06,1.03.18,1.25.45,2.16,1.84,2.19,3.33ZM315.36,198.49h0Z"/>
    <path class="cls-1" d="M341.8,194.92c-2.03,0-2.79-.62-2.79-2.27v-8.35h4.39v-4.32h-4.39v-6.95h-6.24v6.95h-2.93v4.32h2.93v9.24c0,1.95.64,3.46,1.9,4.5,1.16.95,2.83,1.46,4.84,1.46,1.4,0,2.99-.21,4.05-.54l.12-.04v-4.34l-.23.08c-.38.13-1.04.26-1.66.26Z"/>
    <path class="cls-1" d="M384.08,188.36s0-.07,0-.1v-.12s0-.06,0-.08v-.06s0-.05,0-.07c0-.03,0-.06,0-.08v-.06s0-.05,0-.07v-.22s-.02-.06-.02-.09l-.03-.34s0-.06-.01-.09v-.12s-.02-.06-.03-.09l-.02-.12s0-.06-.01-.09l-.02-.12s-.01-.06-.02-.09v-.04s-.02-.05-.02-.07c0-.03-.01-.06-.02-.09l-.02-.11s-.01-.06-.02-.09v-.04s-.02-.05-.03-.08c0-.03-.02-.07-.02-.1l-.03-.1s-.02-.08-.03-.11l-.02-.09s-.02-.08-.03-.11l-.03-.08s-.02-.07-.04-.11l-.03-.08s-.03-.07-.04-.11l-.03-.08s-.03-.07-.04-.11l-.03-.08s-.03-.07-.04-.11l-.03-.08s-.03-.07-.05-.11l-.03-.07s-.03-.07-.05-.11c-.01-.02-.02-.05-.03-.07-.02-.04-.04-.07-.05-.11-.01-.02-.02-.05-.03-.07-.02-.04-.04-.07-.06-.11l-.04-.07s-.04-.07-.06-.11l-.04-.07s-.04-.07-.06-.11l-.04-.06s-.04-.07-.07-.11l-.04-.06s-.05-.07-.07-.11l-.04-.06s-.05-.07-.08-.11l-.04-.06s-.05-.07-.08-.11l-.04-.05s-.06-.07-.08-.1l-.04-.05s-.06-.07-.09-.1l-.04-.05s-.06-.07-.09-.1l-.04-.05s-.06-.07-.1-.1l-.04-.04s-.07-.07-.1-.1l-.04-.04s-.07-.07-.11-.1l-.04-.04s-.07-.07-.11-.1l-.04-.03s-.08-.07-.12-.1l-.04-.03s-.08-.07-.12-.1l-.04-.03s-.09-.07-.13-.1l-.04-.03s-.09-.06-.14-.1l-.03-.02s-.1-.06-.14-.1l-.03-.02c-.05-.03-.1-.06-.15-.09l-.03-.02c-.05-.03-.11-.06-.16-.09h-.02c-.06-.04-.11-.08-.17-.11h-.01c-.06-.04-.12-.07-.18-.1h0c-1.3-.65-2.87-.99-4.67-1.03-.12,0-.23,0-.35,0-4.26,0-7.41,2.18-8.66,5.99-.05.16-.1.33-.15.5-.02.08-.05.17-.07.26-.04.17-.08.35-.12.53-.02.09-.04.18-.05.27-.05.27-.09.56-.12.85-.07.58-.1,1.2-.1,1.83,0,.11,0,.22,0,.33v.1c0,.08,0,.16.01.24v.11c0,.09.01.17.02.25v.07c.01.11.02.21.03.32v.07c.02.08.02.16.03.24v.1c.02.08.03.15.04.23v.08c.03.1.04.2.06.3.02.1.04.2.06.29l.02.08c.02.07.03.15.05.23l.02.07c.02.08.04.17.07.25v.03c.03.1.06.19.09.28v.04c.04.08.06.15.09.23l.02.07c.03.07.05.15.08.22l.02.05c.07.18.14.35.22.52l.02.05c.03.07.07.14.1.21l.02.05c.09.17.18.33.27.49v.02c.05.07.1.14.14.21l.02.04c.05.07.09.14.14.21h0c.11.16.22.31.34.45l.02.02c.05.06.11.13.16.19v.02c.14.14.27.27.4.4h0c.06.07.13.13.2.19l.02.02c.21.18.43.36.66.53h0c.07.06.15.11.23.16.1.06.21.13.34.21.03.02.05.03.08.05l.03.02s.03.02.05.03c.09.05.18.1.27.15h0c.19.1.38.19.57.27h.01c.3.13.61.24.92.34h.01c.21.07.44.13.66.18.33.08.69.14,1.04.19h0c.6.09,1.25.13,1.91.14h.05s.07,0,.1,0c.12,0,.23,0,.35,0h.11c.08,0,.16,0,.23-.01h.13c.07,0,.14-.01.21-.02.05,0,.09,0,.14,0,.07,0,.14-.01.2-.02.05,0,.09,0,.14-.01.07,0,.13-.01.2-.02h.02s.07-.01.11-.02c.07,0,.14-.02.21-.03h.03s.06-.01.09-.02c.08-.01.15-.03.23-.04h.04s.04-.01.06-.02c.22-.04.43-.09.63-.14.02,0,.04-.01.06-.02h.03c.07-.03.15-.05.22-.07.03,0,.05-.02.08-.02h.03c.07-.03.13-.05.19-.07.04-.01.07-.03.12-.04.06-.02.12-.05.18-.07.04-.01.08-.03.12-.05.06-.02.12-.05.18-.08.04-.02.07-.03.11-.05.06-.03.12-.06.18-.09l.03-.02s.05-.02.07-.03c.07-.04.14-.07.2-.11l.03-.02s.03-.02.05-.03c.1-.05.19-.11.28-.17.08-.05.16-.1.23-.16.02-.01.04-.03.06-.04l.04-.03s.08-.06.13-.09c.03-.02.06-.05.09-.07h.02s.08-.07.11-.1c.04-.03.08-.07.12-.1.03-.03.07-.06.1-.09.04-.04.08-.08.12-.11.03-.03.06-.06.09-.08.04-.04.09-.08.13-.13.02-.02.04-.04.06-.06h.01c.04-.06.09-.11.13-.16.01-.01.03-.03.04-.04l.02-.02c.05-.05.09-.11.14-.17.79-.91,1.37-2.04,1.72-3.36l.06-.22h-6.06l-.05.11c-.26.61-.69,1.12-1.23,1.48-.51.34-1.1.52-1.71.52-.64,0-1.26-.2-1.79-.58-.87-.61-1.41-2.17-1.43-3.29h12.31v-3.05ZM378.21,187.3h-6.45c.02-.96.4-1.95.99-2.55.6-.62,1.4-.96,2.24-.96.35,0,.7.06,1.03.18,1.25.45,2.16,1.84,2.19,3.33ZM370.66,198.49h0Z"/>
    <path class="cls-1" d="M150.71,177.86v6.74h9.28v4.3h-9.28v10.28h-6.42v-25.77h16.74v4.46h-10.31Z"/>
    <path class="cls-1" d="M273.93,178.52h-7.49v20.98h-6.42v-20.98h-7.49v-4.79h21.41v4.79Z"/>
    <g>
      <rect class="cls-1" x="43.35" y="179.99" width="6.42" height="19.18"/>
      <rect class="cls-1" x="43.35" y="173.05" width="6.42" height="5.22"/>
    </g>
  </g>
</svg>